<svg width="26" height="32" viewBox="408 903 26 32" xmlns="http://www.w3.org/2000/svg"><g id="noun_105065_cc-copy" fill="none" fill-rule="evenodd" transform="translate(409 905)"><g id="Group" stroke-width="2" stroke="#A7A7A7" fill="#E5E5E5"><g id="Shape"><path d="M9.57 28.893c-.949 0-1.833-.28-2.629-.834-1.507-1.05-5.85-5.508-6.522-10.595-.341-2.59.328-4.909 1.99-6.89.127-.132 2.572-2.599 5.497-2.29 1.3.136 1.735.318 2.085.463.331.138.593.247 2.011.252 1.415-.005 1.676-.114 2.007-.252.35-.145.786-.327 2.085-.464 2.92-.309 5.372 2.162 5.468 2.26 1.69 2.013 2.36 4.33 2.018 6.923-.672 5.087-5.016 9.545-6.523 10.593a4.517 4.517 0 0 1-2.628.834c-1.05 0-1.928-.344-2.429-.594-.5.25-1.377.594-2.43.594z"/><path d="M9.06 8.99c-1.033 0-2.142-.272-3.296-.81a.575.575 0 0 1-.33-.486c-.005-.069-.093-1.691 1.178-3.055 1.523-1.636 4.28-2.166 8.122-1.545a.575.575 0 0 1 .481.568c0 .365-1.714 5.328-6.154 5.328z" transform="rotate(-122 10.323 5.916)"/></g></g></g></svg>