<svg width="26" height="28" viewBox="0 0 26 28" xmlns="http://www.w3.org/2000/svg"><defs><linearGradient x1="50%" y1="0%" x2="50%" y2="100%" id="linearGradient-1"><stop stop-color="#9AE6A8" offset="0%"/><stop stop-color="#58BF66" offset="100%"/></linearGradient></defs><g id="HOP-ON" fill="none" fill-rule="evenodd"><path d="M9.727 8.588c.34.291.609.663.915 1.008.186-.218.362-.432.547-.637.187-.205.38-.403.574-.601.456-.466 1.071-.472 1.523-.005.389.403.763.82 1.135 1.22.399-.433.805-.868 1.202-1.311.039-.043.044-.146.024-.205-.686-1.96-1.728-3.71-3.116-5.288-.054.06-.092.1-.128.142-1.221 1.407-2.155 2.985-2.85 4.713-.158.393-.178.663.174.964" id="Fill-1" fill="url(#linearGradient-1)"/><path d="M17.515 16.263c.033-.015.065-.025.094-.042a13.213 13.213 0 0 1 2.878-1.258c.077-.024.158-.132.183-.216a12.82 12.82 0 0 0 .418-4.847 12.276 12.276 0 0 0-.569-2.667c-.045.01-.067.011-.085.02a13.236 13.236 0 0 0-4.684 4.003c-.084.114-.067.194-.004.303.58.997 1.037 2.05 1.363 3.156.15.507.27 1.023.406 1.548z" id="Fill-3" fill="url(#linearGradient-1)"/><path d="M7.174 16.064l.368.204c.018-.038.032-.055.035-.074.324-1.65.904-3.205 1.748-4.658.073-.125.038-.202-.035-.3a13.054 13.054 0 0 0-3.46-3.28c-.407-.264-.835-.499-1.266-.755-.032.06-.041.073-.046.086-.788 2.49-.82 4.993-.119 7.506.021.078.129.162.214.188a12.97 12.97 0 0 1 2.561 1.083z" id="Fill-5" fill="url(#linearGradient-1)"/><path d="M2.127 16.565c.397 4.807 4.585 8.813 9.32 9.18-.308-2.543-1.384-4.689-3.252-6.425-1.709-1.59-3.738-2.493-6.068-2.755z" id="Fill-7" fill="url(#linearGradient-1)"/><path d="M20.589 22.082c1.348-1.585 2.127-3.42 2.361-5.501-5.094.437-8.996 4.753-9.308 9.193 2.795-.344 5.124-1.549 6.947-3.692z" id="Fill-9" fill="url(#linearGradient-1)"/><path d="M15.607 17.538c-.285-2.418-1.186-4.584-2.671-6.51-.128-.165-.265-.324-.404-.492-.056.062-.09.097-.123.136a13.032 13.032 0 0 0-2.959 6.79c-.021.162.02.257.136.363.641.587 1.229 1.225 1.705 1.952.444.68.844 1.392 1.266 2.095a.265.265 0 0 0 .024-.042 12.558 12.558 0 0 1 2.954-4.074c.05-.046.08-.148.072-.218z" id="Fill-11" fill="url(#linearGradient-1)"/><path d="M20.589 22.081c-1.823 2.144-4.152 3.349-6.947 3.692.312-4.44 4.214-8.756 9.308-9.192-.234 2.08-1.013 3.915-2.361 5.5m-8.032-.21c-.422-.702-.82-1.414-1.267-2.094-.476-.726-1.063-1.365-1.705-1.952-.116-.106-.155-.201-.135-.363a13.024 13.024 0 0 1 2.96-6.79c.032-.039.066-.074.122-.136.139.168.276.327.403.493 1.486 1.925 2.387 4.092 2.671 6.51a.289.289 0 0 1-.071.217 12.566 12.566 0 0 0-2.954 4.073.249.249 0 0 1-.024.043m-10.43-5.307c2.33.262 4.359 1.165 6.068 2.755 1.868 1.736 2.944 3.882 3.252 6.426-4.734-.367-8.924-4.374-9.32-9.181m2.39-9.278c.006-.013.015-.025.047-.087.431.257.858.493 1.268.757a13.049 13.049 0 0 1 3.458 3.279c.072.099.109.175.035.3a14.882 14.882 0 0 0-1.747 4.658c-.003.019-.017.037-.036.074l-.368-.204a12.896 12.896 0 0 0-2.561-1.083c-.085-.026-.193-.11-.214-.187-.7-2.514-.67-5.017.119-7.507m5.035.337c.695-1.728 1.628-3.306 2.85-4.713.036-.042.074-.083.128-.142 1.388 1.579 2.43 3.328 3.115 5.288.02.06.015.162-.023.204-.397.444-.803.88-1.202 1.312-.372-.4-.746-.817-1.135-1.22-.452-.467-1.067-.461-1.523.005-.193.198-.387.396-.574.601-.185.204-.36.419-.548.637-.305-.344-.575-.717-.914-1.008-.352-.3-.332-.57-.174-.964m6.196 3.632a13.247 13.247 0 0 1 4.684-4.003c.018-.009.04-.01.086-.02.293.874.478 1.761.568 2.667.166 1.641.035 3.26-.418 4.847-.024.084-.105.193-.182.217-1.007.31-1.972.717-2.877 1.256-.03.018-.062.028-.096.043-.136-.525-.255-1.041-.406-1.548a14.343 14.343 0 0 0-1.361-3.156c-.064-.11-.08-.19.002-.303m8.18 3.207c-.35.016-.702.002-1.061.002.01-.057.018-.127.033-.196.186-.899.287-1.808.302-2.725A15.19 15.19 0 0 0 22.065 5.5c-.243-.595-.822-.86-1.407-.596-.62.28-1.233.577-1.828.907-.506.28-.981.616-1.481.936l-.093-.21A18.055 18.055 0 0 0 13.3.608c-.475-.475-1.067-.475-1.541-.004A18.044 18.044 0 0 0 7.8 6.531c-.031.075-.064.148-.101.235-.092-.064-.162-.112-.23-.162a15.42 15.42 0 0 0-3.043-1.695c-.617-.258-1.192-.016-1.438.607-.099.251-.198.502-.286.756a14.96 14.96 0 0 0-.704 7.068c.054.384.124.764.183 1.124-.357 0-.703.014-1.047-.002C.492 14.43 0 14.874 0 15.512c-.001.869.09 1.73.28 2.578.55 2.473 1.73 4.604 3.586 6.325 3.066 2.843 6.7 3.93 10.82 3.264 2.879-.466 5.303-1.84 7.242-4.022 2.057-2.315 3.094-5.039 3.128-8.138.007-.643-.488-1.088-1.127-1.056" id="Fill-13" fill="#000"/></g></svg>