<svg width="24" height="36" viewBox="0 -1 24 36" xmlns="http://www.w3.org/2000/svg" xmlns:xlink="http://www.w3.org/1999/xlink"><defs><path id="path-1" d="M23.684 34.229H0V.583h23.684z"/></defs><g id="MALT-OFF" fill="none" fill-rule="evenodd" transform="translate(0 -1)"><g id="Group-3" transform="translate(0 .52)"><mask id="mask-2" fill="#fff"><use xlink:href="#path-1"/></mask><path d="M21.249 9.93l-.677-2.743s-3.95 2.912-4.669 3.479c.545-1.787.307-3.598-.716-5.41-.409-.722-3.522-4.673-3.522-4.673s-2.255 3.22-2.767 3.94c-1.41 1.984-1.798 4.044-1.156 6.14-.715-.565-4.665-3.474-4.665-3.474s-.984 3.991-1.03 4.643c-.176 2.498.784 4.622 2.847 6.316C4.224 17.835 0 16.056 0 16.056s.036 3.001.072 3.67c.156 3 1.684 5.227 4.54 6.62 1.61.784 3.27 1.543 4.875 2.276l.707.268c.025.012.17.02.17.024v.06c0 1.068-.146 2.208-.112 3.38.011.402.08.822.292 1.149.294.455.763.726 1.303.726.54 0 1.024-.27 1.317-.723.212-.328.333-.746.346-1.148.032-1.087.03-2.19-.002-3.284-.005-.153-.007-.16.18-.245 1.622-.738 3.35-1.541 5.287-2.46 2.307-1.092 3.773-2.825 4.366-5.149.519-2.034.295-5.164.295-5.164s-4.186 1.759-4.858 2.074c2.048-1.692 3-3.809 2.825-6.298-.047-.65-.203-1.285-.353-1.899l-.001-.003z" id="Fill-1" fill="#A7A7A7" mask="url(#mask-2)"/></g><path d="M21.863 19.004c.015.83.005 1.619-.186 2.37-.476 1.872-1.614 3.212-3.477 4.095a369.6 369.6 0 0 1-4.831 2.251c.25-.271.421-.612.48-.996.032-.216.045-.425.059-.61.01-.161.02-.316.041-.448.334-2.073 1.422-3.544 3.327-4.498 1.398-.7 2.853-1.368 4.261-2.015l.326-.149" id="Fill-4" fill="#E5E5E5"/><path d="M1.777 19.009c.122.056.244.111.365.168 1.384.634 2.814 1.29 4.182 1.978 2.155 1.088 3.275 2.769 3.427 5.14l.002.074c.004.102.01.24.038.397.071.37.242.697.485.96a213.208 213.208 0 0 1-4.861-2.273C3.109 24.33 1.927 22.6 1.8 20.168c-.02-.382-.025-.766-.024-1.16" id="Fill-6" fill="#E5E5E5"/><path d="M4.148 10.476l.275.21c1.18.905 2.402 1.84 3.554 2.796 1.968 1.63 2.64 3.614 2.057 6.066-.07.293-.142.584-.216.88-1.207-.936-2.413-1.873-3.618-2.81-1.792-1.397-2.593-3.085-2.446-5.161.037-.523.172-1.071.314-1.65l.08-.33" id="Fill-8" fill="#E5E5E5"/><path d="M11.812 3.992c.187.246.379.487.566.721.489.614.95 1.195 1.297 1.807 1.173 2.075 1.058 4.07-.349 6.097-.461.665-.967 1.296-1.502 1.962-.057-.075-.114-.15-.168-.224-.195-.26-.395-.515-.589-.76-.46-.582-.893-1.132-1.192-1.707-1.078-2.065-.929-4.016.455-5.964a44.2 44.2 0 0 1 1.482-1.932" id="Fill-10" fill="#E5E5E5"/><path d="M19.502 10.476l.08.331c.142.579.277 1.127.314 1.65.147 2.076-.654 3.764-2.447 5.16-1.204.938-2.41 1.875-3.617 2.811-.074-.296-.146-.587-.216-.88-.583-2.452.09-4.437 2.057-6.066 1.152-.955 2.373-1.89 3.554-2.796l.275-.21" id="Fill-12" fill="#E5E5E5"/><path d="M15.187 12.291c-.409-.722-.931-1.379-1.438-2.014-.208-.262-.425-.534-.626-.804-.195-.257-.4-.514-.598-.764l-.012-.015c-.097-.123-.2-.25-.305-.384l-.543-.692s-2.255 3.22-2.767 3.94c-1.723 2.425-1.921 4.962-.575 7.543.368.705.893 1.339 1.34 1.953.148.224.391.48.573.723.246.331.518.656.792.998l.179-.123-.17.135.397.5.562.716.343-.828a2.34 2.34 0 0 0 .041-.108c.24-.307.488-.615.728-.914l.017-.021c.552-.686 1.123-1.396 1.635-2.134 1.75-2.518 1.893-5.112.427-7.707" id="Fill-14" fill="#A7A7A7"/><path d="M11.812 10.507c.187.246.379.487.566.72.489.615.95 1.195 1.297 1.807 1.173 2.076 1.058 4.071-.349 6.097-.461.665-.967 1.297-1.502 1.962-.057-.075-.114-.15-.168-.224-.195-.26-.395-.514-.589-.76-.46-.581-.893-1.131-1.192-1.706-1.078-2.065-.929-4.016.455-5.964a44.2 44.2 0 0 1 1.482-1.932" id="Fill-16" fill="#E5E5E5"/><path d="M15.252 18.912c-.41-.726-.935-1.386-1.443-2.023-.209-.262-.425-.534-.625-.801-.195-.259-.4-.517-.6-.767l-.011-.015c-.098-.123-.2-.25-.305-.384l-.56-.712-.237.325c-.021.03-2.124 2.927-2.629 3.638-1.738 2.447-1.93 5.008-.573 7.61.372.711.875 1.349 1.36 1.965.179.224.379.478.559.722.247.332.506.657.78 1l.24-.165-.23.177c.126.16.259.325.396.5l.643.818.391-.947c.017-.04.028-.073.04-.101.236-.303.481-.609.719-.905l.018-.02c.553-.687 1.124-1.398 1.638-2.138 1.764-2.54 1.91-5.158.43-7.777" id="Fill-18" fill="#A7A7A7"/><path d="M11.812 17.16c.187.246.379.487.566.721.489.614.95 1.195 1.297 1.806 1.173 2.076 1.058 4.071-.349 6.098-.461.664-.967 1.296-1.502 1.962-.057-.075-.114-.15-.168-.224-.195-.261-.395-.515-.589-.76-.46-.582-.893-1.132-1.192-1.707-1.078-2.065-.929-4.016.455-5.964a44.2 44.2 0 0 1 1.482-1.932" id="Fill-20" fill="#E5E5E5"/></g></svg>