<svg width="26px" height="32px" viewBox="408 903 26 32" version="1.1" xmlns="http://www.w3.org/2000/svg" xmlns:xlink="http://www.w3.org/1999/xlink">
    <!-- Generator: Sketch 40 (33762) - http://www.bohemiancoding.com/sketch -->
    <desc>Created with Sketch.</desc>
    <defs></defs>
    <g id="noun_105065_cc-copy" stroke="none" stroke-width="1" fill="none" fill-rule="evenodd" transform="translate(409.000000, 905.000000)">
        <g id="Group" stroke-width="2" stroke="#A7A7A7" fill="#E5E5E5">
            <g id="Shape">
                <path d="M9.57085714,28.8928571 C8.62114286,28.8928571 7.73657143,28.6124843 6.94114286,28.0592229 C5.43428571,27.0096957 1.09028571,22.5507886 0.419428571,17.4643529 C0.0777142857,14.8730629 0.747428571,12.5552371 2.40971429,10.57478 C2.536,10.4423657 4.98114286,7.97543 7.90628571,8.28343714 C9.20514286,8.41988143 9.64114286,8.60180714 9.99085714,8.74746286 C10.3222857,8.88505857 10.584,8.99444429 12.0022857,8.99905 C13.4165714,8.99444429 13.6782857,8.88505857 14.0091429,8.74746286 C14.3594286,8.60180714 14.7948571,8.42045714 16.0937143,8.28343714 C19.0131429,7.97427857 21.4657143,10.4446686 21.5617143,10.5436914 C23.2525714,12.5558129 23.9222857,14.8736386 23.58,17.4655043 C22.908,22.5530914 18.564,27.0108471 17.0571429,28.0586471 C16.2628571,28.6124843 15.3782857,28.8928571 14.4291429,28.8928571 C13.3788571,28.8928571 12.5005714,28.54858 12,28.29872 C11.5,28.5491557 10.6228571,28.8928571 9.57085714,28.8928571 Z"></path>
                <path d="M9.06092227,8.99040988 C8.02720798,8.99040988 6.91806512,8.71752131 5.76377941,8.17980416 C5.57349369,8.09114416 5.44663655,7.90461273 5.43349369,7.69390131 C5.42949369,7.62539131 5.34149369,6.00302845 6.61177941,4.63858559 C8.13520798,3.00298131 10.8923508,2.47332416 14.7340651,3.09394416 C15.011208,3.13884988 15.215208,3.37949845 15.215208,3.66217416 C15.2146366,4.02717702 13.5014937,8.99040988 9.06092227,8.99040988 Z" transform="translate(10.323018, 5.916170) rotate(-122.000000) translate(-10.323018, -5.916170) "></path>
            </g>
        </g>
    </g>
</svg>