<svg width="26px" height="28px" viewBox="0 0 26 28" version="1.1" xmlns="http://www.w3.org/2000/svg" xmlns:xlink="http://www.w3.org/1999/xlink">
    <!-- Generator: Sketch 40 (33762) - http://www.bohemiancoding.com/sketch -->
    <desc>Created with Sketch.</desc>
    <defs></defs>
    <g id="HOP-OFF" stroke="none" stroke-width="1" fill="none" fill-rule="evenodd">
        <path d="M9.72705955,8.58849888 C10.0665708,8.87915056 10.3359247,9.25123483 10.6416101,9.5957573 C10.8282787,9.37776854 11.0036719,9.1635382 11.1890876,8.95933034 C11.3757562,8.75386966 11.5699416,8.55592584 11.7628742,8.35798202 C12.2188966,7.89193708 12.8340258,7.88567303 13.2862899,8.35297079 C13.6746607,8.75637528 14.0492506,9.17230787 14.4213348,9.57320674 C14.8197281,9.13973483 15.2256382,8.70501011 15.6227787,8.26151573 C15.6616157,8.21892022 15.666627,8.11618989 15.646582,8.05730787 C14.9612955,6.0966618 13.9189584,4.34774045 12.5308461,2.76920112 C12.4769753,2.82808315 12.439391,2.86942584 12.4030596,2.91076854 C11.1815708,4.31767303 10.2482281,5.89621236 9.5529191,7.62383596 C9.39506517,8.01721798 9.37502022,8.28657191 9.72705955,8.58849888" id="Fill-1" fill="#E5E5E5"></path>
        <path d="M17.1091112,14.7148601 C17.2581955,15.2222478 17.3784652,15.7384051 17.5150213,16.263332 C17.5475944,16.2482983 17.5801674,16.2382758 17.608982,16.2207365 C18.5160157,15.679523 19.4806787,15.2748657 20.4866843,14.9629163 C20.5643584,14.9391129 20.6445382,14.8313713 20.6695944,14.7474331 C21.1231112,13.1588713 21.2534034,11.5414949 21.0880326,9.90031517 C20.9965775,8.99453427 20.8111618,8.10754551 20.5192573,7.23308483 C20.4741562,7.2431073 20.4516056,7.24436011 20.4340663,7.25312978 C18.5561056,8.2177927 16.9976112,9.55453989 15.7498135,11.2558545 C15.6658753,11.3698601 15.6834146,11.4500399 15.7460551,11.5590343 C16.3261056,12.5562702 16.7833809,13.6086298 17.1091112,14.7148601" id="Fill-3" fill="#E5E5E5"></path>
        <path d="M4.61321854,14.9813326 C5.50521854,15.2531921 6.36088708,15.6089899 7.17396011,16.0637596 C7.29548258,16.1314112 7.41700506,16.1990629 7.54228596,16.2679674 C7.55982528,16.2303831 7.57360618,16.2128438 7.57736461,16.1940517 C7.90058933,14.5441022 8.48063989,12.9893663 9.32503315,11.5361079 C9.39769607,11.410827 9.36261742,11.3344056 9.28995449,11.2354337 C8.33531404,9.93376517 7.18774101,8.83379888 5.83094888,7.95683258 C5.42253315,7.69248989 4.99532528,7.4569618 4.56435899,7.20138876 C4.53178596,7.2615236 4.52301629,7.27405169 4.51800506,7.28657978 C3.7299882,9.77716404 3.69866798,12.2802764 4.3989882,14.7934112 C4.42028596,14.8710854 4.52802753,14.9550236 4.61321854,14.9813326" id="Fill-5" fill="#E5E5E5"></path>
        <path d="M8.19525,19.3198101 C6.48641854,17.7299955 4.45686798,16.8267202 2.12664326,16.5648831 C2.52378371,21.3719112 6.71192416,25.3783944 11.4462893,25.7454674 C11.1393511,23.2022652 10.0631882,21.0562034 8.19525,19.3198101" id="Fill-7" fill="#E5E5E5"></path>
        <path d="M13.6417118,25.7736556 C16.4367287,25.430386 18.7657006,24.2251837 20.5885376,22.0816275 C21.9365601,20.4968242 22.7158073,18.661459 22.9500826,16.5805433 C17.8561612,17.0177736 13.9536612,21.3337006 13.6417118,25.7736556" id="Fill-9" fill="#E5E5E5"></path>
        <path d="M15.5352073,17.7563045 C15.5853197,17.7099506 15.6141343,17.608473 15.6066174,17.5383157 C15.3222298,15.1203944 14.4214601,12.9542876 12.9356287,11.0287202 C12.8078421,10.8633494 12.671286,10.7042427 12.5322242,10.5363663 C12.4758478,10.5977539 12.4420219,10.6328326 12.4094489,10.6716697 C10.7670163,12.6486022 9.77980281,14.9111753 9.45031404,17.4618944 C9.42901629,17.6235067 9.46910618,17.7187202 9.58561742,17.825209 C10.2270556,18.4115236 10.814623,19.0504562 11.2906904,19.7770854 C11.7354376,20.4573607 12.1350837,21.1689562 12.5572803,21.871782 C12.5560275,21.8755404 12.5698084,21.8529899 12.5810837,21.8304393 C13.2914264,20.2731978 14.2748815,18.9151528 15.5352073,17.7563045" id="Fill-11" fill="#E5E5E5"></path>
        <path d="M20.5887882,22.0811264 C18.7659511,24.2246826 16.4369792,25.4298848 13.6419624,25.7731545 C13.9539118,21.3331994 17.8564118,17.0172725 22.9503331,16.5812949 C22.7160579,18.6609579 21.9368107,20.496323 20.5887882,22.0811264 M12.5570298,21.8719073 C12.1348331,21.1690815 11.7364399,20.457486 11.2904399,19.7772107 C10.8143725,19.0505815 10.2268051,18.4116489 9.58536685,17.8253343 C9.46885562,17.7188455 9.43001854,17.623632 9.45006348,17.4620197 C9.77955225,14.9113006 10.7667657,12.6487275 12.4104511,10.6717949 C12.4417713,10.6329579 12.4755972,10.5978792 12.5319736,10.5364916 C12.6710354,10.704368 12.8075916,10.8634747 12.9353781,11.0288455 C14.4212096,12.9544129 15.3219792,15.1205197 15.6063669,17.538441 C15.6151365,17.6085983 15.5850691,17.7100758 15.5349567,17.7564298 C14.2746309,18.9152781 13.2911758,20.273323 12.5808331,21.8293118 C12.5695579,21.8531152 12.555777,21.8756657 12.5570298,21.8719073 M2.12739494,16.5650084 C4.45636685,16.8268455 6.48591742,17.7301208 8.19474888,19.3199354 C10.0626871,21.0563287 11.13885,23.2023904 11.447041,25.7455927 C6.71267584,25.3785197 2.52328258,21.3720365 2.12739494,16.5650084 M4.51775449,7.28670506 C4.52276573,7.27417697 4.53153539,7.26164888 4.56410843,7.20026124 C4.99507472,7.45708708 5.42228258,7.69261517 5.83195112,7.95695787 C7.18749045,8.83392416 8.33506348,9.93263764 9.28970393,11.235559 C9.36236685,11.3345309 9.39869831,11.4109522 9.32478258,11.5362331 C8.48038933,12.9894916 7.90033876,14.5442275 7.57836685,16.194177 C7.57460843,16.2129691 7.56082753,16.2305084 7.54203539,16.2680927 C7.41675449,16.1991882 7.29523202,16.1315365 7.17370955,16.0638848 C6.36063652,15.6078624 5.50496798,15.2533174 4.61296798,14.9814579 C4.52777697,14.9551489 4.42003539,14.8712107 4.39873764,14.7935365 C3.69841742,12.2804017 3.72973764,9.77728933 4.51775449,7.28670506 M9.55279382,7.62371067 C10.2481028,5.89608708 11.1814455,4.31754775 12.4029343,2.91064326 C12.4392657,2.86930056 12.47685,2.82795787 12.5307208,2.76907584 C13.9188331,4.34761517 14.9611702,6.09653652 15.6464567,8.05718258 C15.6665017,8.11606461 15.6614904,8.21879494 15.6226534,8.26139045 C15.2255129,8.70488483 14.8196028,9.14086236 14.4212096,9.57308146 C14.0491253,9.17218258 13.6745354,8.75625 13.2861646,8.35284551 C12.8339006,7.88554775 12.2187713,7.8918118 11.7627489,8.35785674 C11.5698163,8.55580056 11.3756309,8.75374438 11.1889624,8.95920506 C11.0035466,9.16341292 10.8281534,9.37764326 10.6414848,9.59563202 C10.3357994,9.25236236 10.0664455,8.87902528 9.72693427,8.5883736 C9.37489494,8.28769944 9.39493989,8.0170927 9.55279382,7.62371067 M15.7491871,11.2556039 C16.9969848,9.55428933 18.556732,8.21754213 20.4334399,7.25287921 C20.4509792,7.24410955 20.4735298,7.24285674 20.5186309,7.23283427 C20.8117882,8.10729494 20.9972039,8.99428371 21.0874062,9.90006461 C21.252777,11.5412444 21.1224848,13.1598736 20.668968,14.7471826 C20.6451646,14.8311208 20.563732,14.9401152 20.4873107,14.9639185 C19.4800522,15.2746152 18.5153893,15.6805253 17.6096084,16.220486 C17.5807938,16.2380253 17.5482208,16.2480478 17.5143949,16.2630815 C17.3778388,15.7381545 17.2588219,15.2219972 17.1084848,14.7146096 C16.7827545,13.6083792 16.3254792,12.5560197 15.7466815,11.5587837 C15.6827882,11.4497893 15.6665017,11.3696096 15.7491871,11.2556039 M23.928777,14.4627949 C23.5792433,14.4790815 23.2272039,14.4653006 22.8676478,14.4653006 C22.8776702,14.4076713 22.8864399,14.337514 22.9014736,14.2686096 C23.0868893,13.3703455 23.1883669,12.4608062 23.2034006,11.54375 C23.2372264,9.45155899 22.8551197,7.43829494 22.0645972,5.50019944 C21.8215522,4.90511517 21.2427545,4.63951966 20.6576927,4.90386236 C20.0388051,5.18449157 19.4249287,5.4814073 18.8298444,5.81089607 C18.3237096,6.09152528 17.8488949,6.42727809 17.3490242,6.74674438 C17.3189567,6.67783989 17.2863837,6.60768258 17.2563163,6.53627247 C16.3292376,4.30000843 15.015041,2.32057022 13.2999455,0.609233146 C12.8251309,0.134418539 12.2325522,0.134418539 11.7589904,0.605474719 C10.0426421,2.31555899 8.72844551,4.29499719 7.80011404,6.53126124 C7.76879382,6.60642978 7.73622079,6.6790927 7.69863652,6.76553652 C7.60718146,6.70164326 7.53702416,6.65403652 7.46811966,6.60392416 C6.51723764,5.92364888 5.50371517,5.35863202 4.42629944,4.9088736 C3.80866461,4.65079494 3.23362528,4.89258708 2.98807472,5.51648596 C2.88910281,5.76704775 2.7901309,6.01760955 2.70243427,6.27192978 C1.90314213,8.57208708 1.66260281,10.927368 1.99835562,13.3402781 C2.0522264,13.7236376 2.12238371,14.1044916 2.18126573,14.4640478 C1.82421517,14.4640478 1.47843989,14.4778287 1.13391742,14.4615421 C0.492479213,14.4302219 0.00137808989,14.8737163 0.000125280899,15.5126489 C-0.00112752809,16.3808455 0.0903275281,17.2415253 0.279501685,18.089677 C0.829484831,20.5627219 2.0096309,22.69375 3.86629382,24.4151096 C6.93191742,27.2577331 10.5663163,28.3451713 14.6855522,27.678677 C17.5645073,27.212632 19.9886927,25.8395534 21.928041,23.6571601 C23.9851534,21.3419691 25.0224792,18.6183624 25.0563051,15.5189129 C25.0625691,14.8762219 24.5677096,14.4314747 23.928777,14.4627949" id="Fill-13" fill="#A7A7A7"></path>
    </g>
</svg>