<?xml version="1.0" encoding="utf-8"?>
<!-- Generator: Adobe Illustrator 19.1.0, SVG Export Plug-In . SVG Version: 6.00 Build 0)  -->
<svg version="1.1" id="Layer_1" xmlns="http://www.w3.org/2000/svg" xmlns:xlink="http://www.w3.org/1999/xlink" x="0px" y="0px"
	 viewBox="0 0 25.1 27.6" style="enable-background:new 0 0 25.1 27.6;" xml:space="preserve">
<style type="text/css">
	.st0{clip-path:url(#SVGID_2_);}
	.st1{clip-path:url(#SVGID_4_);fill:#E5E5E5;}
	.st2{clip-path:url(#SVGID_6_);}
	.st3{clip-path:url(#SVGID_8_);fill:#E5E5E5;}
	.st4{clip-path:url(#SVGID_10_);}
	.st5{clip-path:url(#SVGID_12_);fill:#E5E5E5;}
	.st6{clip-path:url(#SVGID_14_);}
	.st7{clip-path:url(#SVGID_16_);fill:#E5E5E5;}
	.st8{clip-path:url(#SVGID_18_);}
	.st9{clip-path:url(#SVGID_20_);fill:#E5E5E5;}
	.st10{clip-path:url(#SVGID_22_);}
	.st11{clip-path:url(#SVGID_24_);fill:#E5E5E5;}
	.st12{clip-path:url(#SVGID_26_);}
	.st13{clip-path:url(#SVGID_28_);fill:#A8A7A8;}
</style>
<g>
	<defs>
		<path id="SVGID_1_" d="M9.7,8.3c0.3,0.3,0.6,0.7,0.9,1c0.2-0.2,0.4-0.4,0.5-0.6c0.2-0.2,0.4-0.4,0.6-0.6c0.5-0.5,1.1-0.5,1.5,0
			c0.4,0.4,0.8,0.8,1.1,1.2c0.4-0.4,0.8-0.9,1.2-1.3c0,0,0-0.1,0-0.2c-0.7-2-1.7-3.7-3.1-5.3c-0.1,0.1-0.1,0.1-0.1,0.1
			c-1.2,1.4-2.2,3-2.9,4.7C9.4,7.8,9.4,8,9.7,8.3"/>
	</defs>
	<clipPath id="SVGID_2_">
		<use xlink:href="#SVGID_1_"  style="overflow:visible;"/>
	</clipPath>
	<g class="st0">
		<defs>
			<rect id="SVGID_3_" x="0" y="-0.3" width="26" height="28"/>
		</defs>
		<clipPath id="SVGID_4_">
			<use xlink:href="#SVGID_3_"  style="overflow:visible;"/>
		</clipPath>
		<rect x="4.4" y="-2.5" class="st1" width="16.2" height="16.8"/>
	</g>
</g>
<g>
	<defs>
		<path id="SVGID_5_" d="M17.1,14.5c0.1,0.5,0.3,1,0.4,1.5c0,0,0.1,0,0.1,0c0.9-0.5,1.9-0.9,2.9-1.3c0.1,0,0.2-0.1,0.2-0.2
			c0.5-1.6,0.6-3.2,0.4-4.8C21,8.7,20.8,7.9,20.5,7c0,0-0.1,0-0.1,0c-1.9,1-3.4,2.3-4.7,4c-0.1,0.1-0.1,0.2,0,0.3
			C16.3,12.3,16.8,13.4,17.1,14.5"/>
	</defs>
	<clipPath id="SVGID_6_">
		<use xlink:href="#SVGID_5_"  style="overflow:visible;"/>
	</clipPath>
	<g class="st2">
		<defs>
			<rect id="SVGID_7_" x="0" y="-0.3" width="26" height="28"/>
		</defs>
		<clipPath id="SVGID_8_">
			<use xlink:href="#SVGID_7_"  style="overflow:visible;"/>
		</clipPath>
		<rect x="10.7" y="2" class="st3" width="15.5" height="19"/>
	</g>
</g>
<g>
	<defs>
		<path id="SVGID_9_" d="M4.6,14.7c0.9,0.3,1.7,0.6,2.6,1.1c0.1,0.1,0.2,0.1,0.4,0.2c0,0,0-0.1,0-0.1c0.3-1.6,0.9-3.2,1.7-4.7
			c0.1-0.1,0-0.2,0-0.3c-1-1.3-2.1-2.4-3.5-3.3C5.4,7.4,5,7.2,4.6,6.9c0,0.1,0,0.1,0,0.1c-0.8,2.5-0.8,5-0.1,7.5
			C4.4,14.6,4.5,14.7,4.6,14.7"/>
	</defs>
	<clipPath id="SVGID_10_">
		<use xlink:href="#SVGID_9_"  style="overflow:visible;"/>
	</clipPath>
	<g class="st4">
		<defs>
			<rect id="SVGID_11_" x="0" y="-0.3" width="26" height="28"/>
		</defs>
		<clipPath id="SVGID_12_">
			<use xlink:href="#SVGID_11_"  style="overflow:visible;"/>
		</clipPath>
		<rect x="-1.1" y="1.9" class="st5" width="15.5" height="19.1"/>
	</g>
</g>
<g>
	<defs>
		<path id="SVGID_13_" d="M8.2,19.1c-1.7-1.6-3.7-2.5-6.1-2.8c0.4,4.8,4.6,8.8,9.3,9.2C11.1,22.9,10.1,20.8,8.2,19.1"/>
	</defs>
	<clipPath id="SVGID_14_">
		<use xlink:href="#SVGID_13_"  style="overflow:visible;"/>
	</clipPath>
	<g class="st6">
		<defs>
			<rect id="SVGID_15_" x="0" y="-0.3" width="26" height="28"/>
		</defs>
		<clipPath id="SVGID_16_">
			<use xlink:href="#SVGID_15_"  style="overflow:visible;"/>
		</clipPath>
		<rect x="-2.9" y="11.3" class="st7" width="19.3" height="19.2"/>
	</g>
</g>
<g>
	<defs>
		<path id="SVGID_17_" d="M13.6,25.5c2.8-0.3,5.1-1.5,6.9-3.7c1.3-1.6,2.1-3.4,2.4-5.5C17.9,16.8,14,21.1,13.6,25.5"/>
	</defs>
	<clipPath id="SVGID_18_">
		<use xlink:href="#SVGID_17_"  style="overflow:visible;"/>
	</clipPath>
	<g class="st8">
		<defs>
			<rect id="SVGID_19_" x="0" y="-0.3" width="26" height="28"/>
		</defs>
		<clipPath id="SVGID_20_">
			<use xlink:href="#SVGID_19_"  style="overflow:visible;"/>
		</clipPath>
		<rect x="8.6" y="11.3" class="st9" width="19.3" height="19.2"/>
	</g>
</g>
<g>
	<defs>
		<path id="SVGID_21_" d="M15.5,17.5c0.1,0,0.1-0.1,0.1-0.2c-0.3-2.4-1.2-4.6-2.7-6.5c-0.1-0.2-0.3-0.3-0.4-0.5
			c-0.1,0.1-0.1,0.1-0.1,0.1c-1.6,2-2.6,4.2-3,6.8c0,0.2,0,0.3,0.1,0.4c0.6,0.6,1.2,1.2,1.7,2c0.4,0.7,0.8,1.4,1.3,2.1c0,0,0,0,0,0
			C13.3,20,14.3,18.7,15.5,17.5"/>
	</defs>
	<clipPath id="SVGID_22_">
		<use xlink:href="#SVGID_21_"  style="overflow:visible;"/>
	</clipPath>
	<g class="st10">
		<defs>
			<rect id="SVGID_23_" x="0" y="-0.3" width="26" height="28"/>
		</defs>
		<clipPath id="SVGID_24_">
			<use xlink:href="#SVGID_23_"  style="overflow:visible;"/>
		</clipPath>
		<rect x="4.4" y="5.3" class="st11" width="16.2" height="21.3"/>
	</g>
</g>
<g>
	<defs>
		<path id="SVGID_25_" d="M23.9,14.2c-0.3,0-0.7,0-1.1,0c0-0.1,0-0.1,0-0.2c0.2-0.9,0.3-1.8,0.3-2.7c0-2.1-0.3-4.1-1.1-6
			c-0.2-0.6-0.8-0.9-1.4-0.6c-0.6,0.3-1.2,0.6-1.8,0.9c-0.5,0.3-1,0.6-1.5,0.9c0-0.1-0.1-0.1-0.1-0.2c-0.9-2.2-2.2-4.2-4-5.9
			c-0.5-0.5-1.1-0.5-1.5,0c-1.7,1.7-3,3.7-4,5.9c0,0.1-0.1,0.1-0.1,0.2C7.6,6.4,7.5,6.4,7.5,6.4c-1-0.7-2-1.2-3-1.7
			C3.8,4.4,3.2,4.6,3,5.3C2.9,5.5,2.8,5.8,2.7,6c-0.8,2.3-1,4.7-0.7,7.1c0.1,0.4,0.1,0.8,0.2,1.1c-0.4,0-0.7,0-1,0
			c-0.6,0-1.1,0.4-1.1,1.1c0,0.9,0.1,1.7,0.3,2.6c0.5,2.5,1.7,4.6,3.6,6.3c3.1,2.8,6.7,3.9,10.8,3.3c2.9-0.5,5.3-1.8,7.2-4
			c2.1-2.3,3.1-5,3.1-8.1C25.1,14.6,24.6,14.2,23.9,14.2 M15.7,11c1.2-1.7,2.8-3,4.7-4c0,0,0,0,0.1,0c0.3,0.9,0.5,1.8,0.6,2.7
			c0.2,1.6,0,3.3-0.4,4.8c0,0.1-0.1,0.2-0.2,0.2c-1,0.3-2,0.7-2.9,1.3c0,0-0.1,0-0.1,0c-0.1-0.5-0.3-1-0.4-1.5
			c-0.3-1.1-0.8-2.2-1.4-3.2C15.7,11.2,15.7,11.1,15.7,11 M9.6,7.4c0.7-1.7,1.6-3.3,2.9-4.7c0,0,0.1-0.1,0.1-0.1
			c1.4,1.6,2.4,3.3,3.1,5.3c0,0.1,0,0.2,0,0.2c-0.4,0.4-0.8,0.9-1.2,1.3c-0.4-0.4-0.7-0.8-1.1-1.2c-0.5-0.5-1.1-0.5-1.5,0
			c-0.2,0.2-0.4,0.4-0.6,0.6c-0.2,0.2-0.4,0.4-0.5,0.6c-0.3-0.3-0.6-0.7-0.9-1C9.4,8,9.4,7.8,9.6,7.4 M4.5,7C4.5,7,4.5,7,4.5,7
			C5,7.2,5.4,7.4,5.8,7.7c1.4,0.9,2.5,2,3.5,3.3c0.1,0.1,0.1,0.2,0,0.3c-0.8,1.5-1.4,3-1.7,4.7c0,0,0,0,0,0.1
			c-0.1-0.1-0.2-0.1-0.4-0.2c-0.8-0.5-1.7-0.8-2.6-1.1c-0.1,0-0.2-0.1-0.2-0.2C3.7,12,3.7,9.5,4.5,7 M2.1,16.3
			c2.3,0.3,4.4,1.2,6.1,2.8c1.9,1.7,2.9,3.9,3.3,6.4C6.7,25.1,2.5,21.1,2.1,16.3 M12.6,21.6c-0.4-0.7-0.8-1.4-1.3-2.1
			c-0.5-0.7-1.1-1.4-1.7-2c-0.1-0.1-0.2-0.2-0.1-0.4c0.3-2.6,1.3-4.8,3-6.8c0,0,0.1-0.1,0.1-0.1c0.1,0.2,0.3,0.3,0.4,0.5
			c1.5,1.9,2.4,4.1,2.7,6.5c0,0.1,0,0.2-0.1,0.2C14.3,18.7,13.3,20,12.6,21.6C12.6,21.6,12.6,21.6,12.6,21.6 M20.6,21.8
			c-1.8,2.1-4.2,3.3-6.9,3.7c0.3-4.4,4.2-8.8,9.3-9.2C22.7,18.4,21.9,20.2,20.6,21.8"/>
	</defs>
	<clipPath id="SVGID_26_">
		<use xlink:href="#SVGID_25_"  style="overflow:visible;"/>
	</clipPath>
	<g class="st12">
		<defs>
			<rect id="SVGID_27_" x="0" y="-0.3" width="26" height="28"/>
		</defs>
		<clipPath id="SVGID_28_">
			<use xlink:href="#SVGID_27_"  style="overflow:visible;"/>
		</clipPath>
		<rect x="-5" y="-5" class="st13" width="35.1" height="37.6"/>
	</g>
</g>
</svg>
