<?xml version="1.0" encoding="utf-8"?>
<!-- Generator: Adobe Illustrator 19.1.0, SVG Export Plug-In . SVG Version: 6.00 Build 0)  -->
<svg version="1.1" id="Layer_1" xmlns="http://www.w3.org/2000/svg" xmlns:xlink="http://www.w3.org/1999/xlink" x="0px" y="0px"
	 viewBox="0 0 23.7 33.6" style="enable-background:new 0 0 23.7 33.6;" xml:space="preserve">
<style type="text/css">
	.st0{clip-path:url(#SVGID_2_);}
	.st1{clip-path:url(#SVGID_4_);enable-background:new    ;}
	.st2{clip-path:url(#SVGID_6_);}
	.st3{clip-path:url(#SVGID_8_);}
	.st4{clip-path:url(#SVGID_10_);fill:#A8A7A8;}
	.st5{clip-path:url(#SVGID_12_);}
	.st6{clip-path:url(#SVGID_14_);fill:#E5E5E5;}
	.st7{clip-path:url(#SVGID_16_);}
	.st8{clip-path:url(#SVGID_18_);fill:#E5E5E5;}
	.st9{clip-path:url(#SVGID_20_);}
	.st10{clip-path:url(#SVGID_22_);fill:#E5E5E5;}
	.st11{clip-path:url(#SVGID_24_);}
	.st12{clip-path:url(#SVGID_26_);fill:#E5E5E5;}
	.st13{clip-path:url(#SVGID_28_);}
	.st14{clip-path:url(#SVGID_30_);fill:#E5E5E5;}
	.st15{clip-path:url(#SVGID_32_);}
	.st16{clip-path:url(#SVGID_34_);fill:#A8A7A8;}
	.st17{clip-path:url(#SVGID_36_);}
	.st18{clip-path:url(#SVGID_38_);fill:#E5E5E5;}
	.st19{clip-path:url(#SVGID_40_);}
	.st20{clip-path:url(#SVGID_42_);fill:#A8A7A8;}
	.st21{clip-path:url(#SVGID_44_);}
	.st22{clip-path:url(#SVGID_46_);fill:#E5E5E5;}
</style>
<g>
	<defs>
		<rect id="SVGID_1_" x="0" y="0.1" width="23.7" height="33.6"/>
	</defs>
	<clipPath id="SVGID_2_">
		<use xlink:href="#SVGID_1_"  style="overflow:visible;"/>
	</clipPath>
	<g class="st0">
		<defs>
			<rect id="SVGID_3_" x="0" y="-1" width="24" height="36"/>
		</defs>
		<clipPath id="SVGID_4_">
			<use xlink:href="#SVGID_3_"  style="overflow:visible;"/>
		</clipPath>
		<g class="st1">
			<g>
				<defs>
					<rect id="SVGID_5_" x="0" y="0" width="24" height="34"/>
				</defs>
				<clipPath id="SVGID_6_">
					<use xlink:href="#SVGID_5_"  style="overflow:visible;"/>
				</clipPath>
				<g class="st2">
					<defs>
						<path id="SVGID_7_" d="M21.2,9.5c-0.1-0.2-0.7-2.7-0.7-2.7s-4,2.9-4.7,3.5c0.5-1.8,0.3-3.6-0.7-5.4c-0.4-0.7-3.5-4.7-3.5-4.7
							S9.4,3.3,8.9,4c-1.4,2-1.8,4-1.2,6.1C7,9.6,3.1,6.7,3.1,6.7s-1,4-1,4.6c-0.2,2.5,0.8,4.6,2.8,6.3C4.2,17.4,0,15.6,0,15.6
							s0,3,0.1,3.7c0.2,3,1.7,5.2,4.5,6.6c1.6,0.8,3.3,1.5,4.9,2.3l0.7,0.3c0,0,0.2,0,0.2,0v0.1c0,1.1-0.1,2.2-0.1,3.4
							c0,0.4,0.1,0.8,0.3,1.1c0.3,0.5,0.8,0.7,1.3,0.7c0.5,0,1-0.3,1.3-0.7c0.2-0.3,0.3-0.7,0.3-1.1c0-1.1,0-2.2,0-3.3
							c0-0.2,0-0.2,0.2-0.2c1.6-0.7,3.4-1.5,5.3-2.5c2.3-1.1,3.8-2.8,4.4-5.1c0.5-2,0.3-5.2,0.3-5.2s-4.2,1.8-4.9,2.1
							c2-1.7,3-3.8,2.8-6.3C21.6,10.7,21.4,10.1,21.2,9.5L21.2,9.5z"/>
					</defs>
					<clipPath id="SVGID_8_">
						<use xlink:href="#SVGID_7_"  style="overflow:visible;"/>
					</clipPath>
					<g class="st3">
						<defs>
							<rect id="SVGID_9_" x="0" y="0" width="24" height="34"/>
						</defs>
						<clipPath id="SVGID_10_">
							<use xlink:href="#SVGID_9_"  style="overflow:visible;"/>
						</clipPath>
						<rect x="-5" y="-4.9" class="st4" width="33.7" height="43.6"/>
					</g>
				</g>
			</g>
		</g>
	</g>
</g>
<g>
	<defs>
		<path id="SVGID_11_" d="M21.9,18c0,0.8,0,1.6-0.2,2.4c-0.5,1.9-1.6,3.2-3.5,4.1c-1.8,0.8-3.3,1.6-4.8,2.3c0.2-0.3,0.4-0.6,0.5-1
			c0-0.2,0-0.4,0.1-0.6c0-0.2,0-0.3,0-0.4c0.3-2.1,1.4-3.5,3.3-4.5c1.4-0.7,2.9-1.4,4.3-2C21.6,18.1,21.8,18.1,21.9,18"/>
	</defs>
	<clipPath id="SVGID_12_">
		<use xlink:href="#SVGID_11_"  style="overflow:visible;"/>
	</clipPath>
	<g class="st5">
		<defs>
			<rect id="SVGID_13_" x="0" y="-1" width="24" height="36"/>
		</defs>
		<clipPath id="SVGID_14_">
			<use xlink:href="#SVGID_13_"  style="overflow:visible;"/>
		</clipPath>
		<rect x="8.4" y="13" class="st6" width="18.5" height="18.7"/>
	</g>
</g>
<g>
	<defs>
		<path id="SVGID_15_" d="M1.8,18c0.1,0.1,0.2,0.1,0.4,0.2c1.4,0.6,2.8,1.3,4.2,2c2.2,1.1,3.3,2.8,3.4,5.1c0,0,0,0,0,0.1
			c0,0.1,0,0.2,0,0.4c0.1,0.4,0.2,0.7,0.5,1C8.7,26,7,25.2,5.4,24.5c-2.3-1.1-3.5-2.9-3.6-5.3C1.8,18.8,1.8,18.4,1.8,18"/>
	</defs>
	<clipPath id="SVGID_16_">
		<use xlink:href="#SVGID_15_"  style="overflow:visible;"/>
	</clipPath>
	<g class="st7">
		<defs>
			<rect id="SVGID_17_" x="0" y="-1" width="24" height="36"/>
		</defs>
		<clipPath id="SVGID_18_">
			<use xlink:href="#SVGID_17_"  style="overflow:visible;"/>
		</clipPath>
		<rect x="-3.2" y="13" class="st8" width="18.5" height="18.7"/>
	</g>
</g>
<g>
	<defs>
		<path id="SVGID_19_" d="M4.1,9.5c0.1,0.1,0.2,0.1,0.3,0.2c1.2,0.9,2.4,1.8,3.6,2.8c2,1.6,2.6,3.6,2.1,6.1
			c-0.1,0.3-0.1,0.6-0.2,0.9c-1.2-0.9-2.4-1.9-3.6-2.8c-1.8-1.4-2.6-3.1-2.4-5.2c0-0.5,0.2-1.1,0.3-1.6C4.1,9.7,4.1,9.6,4.1,9.5"/>
	</defs>
	<clipPath id="SVGID_20_">
		<use xlink:href="#SVGID_19_"  style="overflow:visible;"/>
	</clipPath>
	<g class="st9">
		<defs>
			<rect id="SVGID_21_" x="0" y="-1" width="24" height="36"/>
		</defs>
		<clipPath id="SVGID_22_">
			<use xlink:href="#SVGID_21_"  style="overflow:visible;"/>
		</clipPath>
		<rect x="-1.3" y="4.5" class="st10" width="16.5" height="20"/>
	</g>
</g>
<g>
	<defs>
		<path id="SVGID_23_" d="M11.8,3c0.2,0.2,0.4,0.5,0.6,0.7c0.5,0.6,1,1.2,1.3,1.8c1.2,2.1,1.1,4.1-0.3,6.1c-0.5,0.7-1,1.3-1.5,2
			c-0.1-0.1-0.1-0.2-0.2-0.2c-0.2-0.3-0.4-0.5-0.6-0.8c-0.5-0.6-0.9-1.1-1.2-1.7c-1.1-2.1-0.9-4,0.5-6C10.8,4.3,11.3,3.6,11.8,3"/>
	</defs>
	<clipPath id="SVGID_24_">
		<use xlink:href="#SVGID_23_"  style="overflow:visible;"/>
	</clipPath>
	<g class="st11">
		<defs>
			<rect id="SVGID_25_" x="0" y="-1" width="24" height="36"/>
		</defs>
		<clipPath id="SVGID_26_">
			<use xlink:href="#SVGID_25_"  style="overflow:visible;"/>
		</clipPath>
		<rect x="4.2" y="-2" class="st12" width="15.3" height="20.6"/>
	</g>
</g>
<g>
	<defs>
		<path id="SVGID_27_" d="M19.5,9.5c0,0.1,0.1,0.2,0.1,0.3c0.1,0.6,0.3,1.1,0.3,1.6c0.1,2.1-0.7,3.8-2.4,5.2
			c-1.2,0.9-2.4,1.9-3.6,2.8c-0.1-0.3-0.1-0.6-0.2-0.9c-0.6-2.5,0.1-4.4,2.1-6.1c1.2-1,2.4-1.9,3.6-2.8C19.3,9.6,19.4,9.5,19.5,9.5"
			/>
	</defs>
	<clipPath id="SVGID_28_">
		<use xlink:href="#SVGID_27_"  style="overflow:visible;"/>
	</clipPath>
	<g class="st13">
		<defs>
			<rect id="SVGID_29_" x="0" y="-1" width="24" height="36"/>
		</defs>
		<clipPath id="SVGID_30_">
			<use xlink:href="#SVGID_29_"  style="overflow:visible;"/>
		</clipPath>
		<rect x="8.4" y="4.5" class="st14" width="16.5" height="20"/>
	</g>
</g>
<g>
	<defs>
		<path id="SVGID_31_" d="M15.2,11.3c-0.4-0.7-0.9-1.4-1.4-2c-0.2-0.3-0.4-0.5-0.6-0.8c-0.2-0.3-0.4-0.5-0.6-0.8l0,0
			c-0.1-0.1-0.2-0.2-0.3-0.4l-0.5-0.7c0,0-2.3,3.2-2.8,3.9c-1.7,2.4-1.9,5-0.6,7.5c0.4,0.7,0.9,1.3,1.3,2c0.1,0.2,0.4,0.5,0.6,0.7
			c0.2,0.3,0.5,0.7,0.8,1l0.2-0.1L11,21.8c0.1,0.2,0.3,0.3,0.4,0.5L12,23l0.3-0.8c0,0,0-0.1,0-0.1c0.2-0.3,0.5-0.6,0.7-0.9l0,0
			c0.6-0.7,1.1-1.4,1.6-2.1C16.5,16.5,16.7,13.9,15.2,11.3"/>
	</defs>
	<clipPath id="SVGID_32_">
		<use xlink:href="#SVGID_31_"  style="overflow:visible;"/>
	</clipPath>
	<g class="st15">
		<defs>
			<rect id="SVGID_33_" x="0" y="-1" width="24" height="36"/>
		</defs>
		<clipPath id="SVGID_34_">
			<use xlink:href="#SVGID_33_"  style="overflow:visible;"/>
		</clipPath>
		<rect x="2.4" y="1.6" class="st16" width="18.7" height="26.4"/>
	</g>
</g>
<g>
	<defs>
		<path id="SVGID_35_" d="M11.8,9.5c0.2,0.2,0.4,0.5,0.6,0.7c0.5,0.6,1,1.2,1.3,1.8c1.2,2.1,1.1,4.1-0.3,6.1c-0.5,0.7-1,1.3-1.5,2
			c-0.1-0.1-0.1-0.2-0.2-0.2c-0.2-0.3-0.4-0.5-0.6-0.8c-0.5-0.6-0.9-1.1-1.2-1.7c-1.1-2.1-0.9-4,0.5-6C10.8,10.8,11.3,10.1,11.8,9.5
			"/>
	</defs>
	<clipPath id="SVGID_36_">
		<use xlink:href="#SVGID_35_"  style="overflow:visible;"/>
	</clipPath>
	<g class="st17">
		<defs>
			<rect id="SVGID_37_" x="0" y="-1" width="24" height="36"/>
		</defs>
		<clipPath id="SVGID_38_">
			<use xlink:href="#SVGID_37_"  style="overflow:visible;"/>
		</clipPath>
		<rect x="4.2" y="4.5" class="st18" width="15.3" height="20.6"/>
	</g>
</g>
<g>
	<defs>
		<path id="SVGID_39_" d="M15.3,17.9c-0.4-0.7-0.9-1.4-1.4-2c-0.2-0.3-0.4-0.5-0.6-0.8c-0.2-0.3-0.4-0.5-0.6-0.8l0,0
			c-0.1-0.1-0.2-0.2-0.3-0.4l-0.6-0.7l-0.2,0.3c0,0-2.1,2.9-2.6,3.6c-1.7,2.4-1.9,5-0.6,7.6c0.4,0.7,0.9,1.3,1.4,2v0
			c0.2,0.2,0.4,0.5,0.6,0.7c0.2,0.3,0.5,0.7,0.8,1l0.2-0.2L11,28.5c0.1,0.2,0.3,0.3,0.4,0.5l0.6,0.8l0.4-0.9c0,0,0-0.1,0-0.1
			c0.2-0.3,0.5-0.6,0.7-0.9l0,0c0.6-0.7,1.1-1.4,1.6-2.1C16.6,23.1,16.7,20.5,15.3,17.9"/>
	</defs>
	<clipPath id="SVGID_40_">
		<use xlink:href="#SVGID_39_"  style="overflow:visible;"/>
	</clipPath>
	<g class="st19">
		<defs>
			<rect id="SVGID_41_" x="0" y="-1" width="24" height="36"/>
		</defs>
		<clipPath id="SVGID_42_">
			<use xlink:href="#SVGID_41_"  style="overflow:visible;"/>
		</clipPath>
		<rect x="2.4" y="8.2" class="st20" width="18.9" height="26.6"/>
	</g>
</g>
<g>
	<defs>
		<path id="SVGID_43_" d="M11.8,16.2c0.2,0.2,0.4,0.5,0.6,0.7c0.5,0.6,1,1.2,1.3,1.8c1.2,2.1,1.1,4.1-0.3,6.1c-0.5,0.7-1,1.3-1.5,2
			c-0.1-0.1-0.1-0.2-0.2-0.2c-0.2-0.3-0.4-0.5-0.6-0.8c-0.5-0.6-0.9-1.1-1.2-1.7c-1.1-2.1-0.9-4,0.5-6
			C10.8,17.4,11.3,16.8,11.8,16.2"/>
	</defs>
	<clipPath id="SVGID_44_">
		<use xlink:href="#SVGID_43_"  style="overflow:visible;"/>
	</clipPath>
	<g class="st21">
		<defs>
			<rect id="SVGID_45_" x="0" y="-1" width="24" height="36"/>
		</defs>
		<clipPath id="SVGID_46_">
			<use xlink:href="#SVGID_45_"  style="overflow:visible;"/>
		</clipPath>
		<rect x="4.2" y="11.2" class="st22" width="15.3" height="20.6"/>
	</g>
</g>
</svg>
