<svg width="24px" height="36px" viewBox="0 -1 24 36" version="1.1" xmlns="http://www.w3.org/2000/svg" xmlns:xlink="http://www.w3.org/1999/xlink">
    <!-- Generator: Sketch 40 (33762) - http://www.bohemiancoding.com/sketch -->
    <desc>Created with Sketch.</desc>
    <defs>
        <polygon id="path-1" points="23.6838618 34.2289705 0 34.2289705 0 0.583438324 23.6838618 0.583438324"></polygon>
        <linearGradient x1="50%" y1="0%" x2="50%" y2="100%" id="linearGradient-3">
            <stop stop-color="#FED96D" offset="0%"></stop>
            <stop stop-color="#FBB03B" offset="100%"></stop>
        </linearGradient>
    </defs>
    <g id="MALT-ON" stroke="none" stroke-width="1" fill="none" fill-rule="evenodd" transform="translate(0.000000, -1.000000)">
        <g id="Group-3" transform="translate(0.000000, 0.520612)">
            <mask id="mask-2" fill="white">
                <use xlink:href="#path-1"></use>
            </mask>
            <g id="Clip-2"></g>
            <path d="M21.2485448,9.9301556 C21.1905204,9.69386529 20.5723826,7.18742132 20.5723826,7.18742132 C20.5723826,7.18742132 16.621985,10.0990921 15.9031926,10.6655264 C16.4479117,8.87899496 16.2098931,7.068172 15.1867685,5.25624488 C14.7782292,4.53412402 11.6650411,0.583438324 11.6650411,0.583438324 C11.6650411,0.583438324 9.41037772,3.80206572 8.89763127,4.52308242 C7.48846663,6.50725855 7.10005823,8.56651758 7.74187943,10.6622139 C7.02663957,10.097988 3.07742609,7.18852548 3.07742609,7.18852548 C3.07742609,7.18852548 2.09337919,11.1800651 2.04719648,11.8315197 C1.87075486,14.3302346 2.83111832,16.4535349 4.89394587,18.148421 C4.22488872,17.8348395 -0.000236834392,16.0560372 -0.000236834392,16.0560372 C-0.000236834392,16.0560372 0.0364724963,19.057145 0.0719976551,19.725162 C0.228308354,22.7251656 1.75589018,24.9533612 4.61211295,26.3457074 C6.22258681,27.1296612 7.8827959,27.8893235 9.4873489,28.622486 L10.1942996,28.8896928 C10.2191672,28.9018386 10.3648203,28.9095677 10.3648203,28.9139843 L10.3648203,28.9747131 C10.3648203,30.0424362 10.217983,31.1819297 10.252324,32.354548 C10.2629815,32.7564623 10.3316635,33.1760432 10.5436303,33.5028747 C10.8384891,33.9577888 11.3074212,34.2294122 11.8474036,34.2294122 C12.387386,34.2294122 12.8705282,33.9588929 13.1642028,33.5061872 C13.3761696,33.1782516 13.4969552,32.7597748 13.509981,32.3578604 C13.5419537,31.2713667 13.5395853,30.1672063 13.5076127,29.0740876 C13.502876,28.9206093 13.5005077,28.9139843 13.688791,28.828964 C15.3099224,28.0913849 17.0388135,27.2875561 18.9749346,26.3688947 C21.2817016,25.2768802 22.7477065,23.5444526 23.3409766,21.2201951 C23.859644,19.1863317 23.6358355,16.0560372 23.6358355,16.0560372 C23.6358355,16.0560372 19.4497876,17.8149646 18.7783621,18.1296503 C20.8257954,16.4380766 21.7778697,14.3214013 21.6026122,11.8315197 C21.5564295,11.1811693 21.4001188,10.5473812 21.249729,9.93346808 L21.2485448,9.9301556 Z" id="Fill-1" fill="#000000" mask="url(#mask-2)"></path>
        </g>
        <path d="M21.6768598,21.3736734 C21.2008227,23.2463293 20.0628334,24.5856758 18.2001309,25.4690041 C16.4440039,26.301541 14.8583977,27.0402242 13.3687093,27.720387 C13.6185696,27.4487636 13.7902745,27.107578 13.848299,26.7244344 C13.8814558,26.5080189 13.8944817,26.2993326 13.9075076,26.1149379 C13.9181651,25.9526263 13.9276385,25.7980439 13.9489536,25.6655446 C14.2828901,23.5930357 15.3711441,22.1222941 17.2764768,21.1682995 C18.6737997,20.4682619 20.129147,19.8002449 21.5371275,19.1532069 C21.6448872,19.1035197 21.753831,19.0538325 21.8627748,19.0041453 C21.878169,19.8333697 21.8675115,20.6228443 21.6768598,21.3736734 Z" id="Fill-4" fill="url(#linearGradient-3)"></path>
        <path d="M2.14157499,19.1767255 C3.52587201,19.8105136 4.95635173,20.4663848 6.32407035,21.1553809 C8.47926331,22.2429788 9.59948999,23.9235108 9.751064,26.2941431 C9.75224817,26.3195388 9.75343234,26.3438303 9.75343234,26.369226 C9.75698486,26.4708087 9.76290572,26.6099329 9.79132584,26.7656196 C9.86237616,27.1355133 10.0328969,27.4634489 10.2756522,27.7251349 C8.669915,26.9919724 7.01562677,26.2334143 5.41462628,25.4527729 C3.10904348,24.3298418 1.92723986,22.6007268 1.80053346,20.1682615 C1.78040254,19.786222 1.77566585,19.4019742 1.77685002,19.0088932 C1.89881974,19.0652053 2.02078945,19.1204134 2.14157499,19.1767255 Z" id="Fill-6" fill="url(#linearGradient-3)"></path>
        <path d="M4.42300068,10.6859534 C5.60362013,11.5913648 6.82450142,12.5265886 7.97670073,13.4816873 C9.94479453,15.111428 10.6174042,17.0956041 10.0336074,19.5479442 C9.96374128,19.8405467 9.89150679,20.1320451 9.81808813,20.42796 C8.6114169,19.4916321 7.40474568,18.5553041 6.20044279,17.617872 C4.40760645,16.2211091 3.6071062,14.532848 3.75394353,12.4570265 C3.79065286,11.9336545 3.92564846,11.385991 4.0677491,10.807411 C4.09380088,10.6992033 4.12103683,10.5876831 4.14827279,10.4761629 C4.2406382,10.5468292 4.33181944,10.6163913 4.42300068,10.6859534 Z" id="Fill-8" fill="url(#linearGradient-3)"></path>
        <path d="M11.8118785,3.99220213 C11.9989776,4.23842988 12.1908135,4.47913684 12.3779127,4.71321883 C12.8669757,5.32713198 13.3288027,5.90792032 13.6745809,6.51962514 C14.8480954,8.59544658 14.7332307,10.5906643 13.3264344,12.6167985 C12.8646073,13.2815031 12.3589659,13.9130828 11.8237202,14.5788915 C11.7668799,14.5038086 11.7100397,14.4287257 11.6555678,14.3547469 C11.4613636,14.0941651 11.2612385,13.8402082 11.0670343,13.5950846 C10.6075756,13.0131921 10.1741686,12.4633203 9.87457313,11.8880527 C8.79697665,9.82327288 8.94618232,7.87222156 10.3304793,5.92448272 C10.7934906,5.27302812 11.3086054,4.62267768 11.8118785,3.99220213" id="Fill-10" fill="url(#linearGradient-3)"></path>
        <path d="M19.582178,10.807411 C19.7242787,11.385991 19.8592743,11.9336545 19.8959836,12.4570265 C20.0428209,14.532848 19.2423207,16.2211091 17.4494843,17.617872 C16.2451814,18.5553041 15.0385102,19.4916321 13.831839,20.42796 C13.7584203,20.1320451 13.6861858,19.8405467 13.6163197,19.5479442 C13.0325229,17.0956041 13.7051326,15.111428 15.6732264,13.4816873 C16.8254257,12.5265886 18.046307,11.5913648 19.2269264,10.6859534 C19.3181077,10.6163913 19.4092889,10.5468292 19.5016543,10.4761629 C19.5288903,10.5876831 19.5561262,10.6992033 19.582178,10.807411 Z" id="Fill-12" fill="url(#linearGradient-3)"></path>
        <path d="M15.1866501,12.2912921 C14.7781108,11.5691712 14.255891,10.9121958 13.7490654,10.2773036 C13.5406511,10.0145135 13.3239476,9.74289001 13.1226384,9.47347489 C12.9284342,9.21620553 12.7235724,8.95893617 12.5246316,8.70939593 L12.5127898,8.69393769 C12.4156877,8.57137589 12.3138489,8.44439745 12.2084576,8.30968989 L11.6649227,7.61848551 C11.6649227,7.61848551 9.41025931,10.8371129 8.89751285,11.5581296 C7.17454265,13.9828657 6.97678593,16.5202262 8.32318945,19.1006489 C8.69146693,19.8062073 9.21605511,20.4399954 9.66248793,21.0539085 L9.66248793,21.0539085 C9.81050943,21.2780531 10.0544489,21.5331141 10.2356272,21.7771336 C10.4819349,22.1083817 10.7542945,22.4330048 11.0278382,22.7752945 L11.2066482,22.6516285 L11.0373116,22.7874403 C11.164018,22.9475435 11.2966452,23.1131676 11.4340092,23.2876249 L11.9964909,24.0031208 L12.3387166,23.1750005 C12.3564791,23.1319383 12.369505,23.0966052 12.3801626,23.0667928 C12.6193653,22.7598363 12.8680414,22.4517755 13.1084283,22.1525481 L13.1250067,22.131569 C13.6768309,21.4458855 14.2476018,20.7359104 14.7603482,19.9983312 C16.5093702,17.4797415 16.652655,14.8860689 15.1866501,12.2912921" id="Fill-14" fill="#000000"></path>
        <path d="M12.3779127,11.2277648 C12.8669757,11.841678 13.3288027,12.4224663 13.6745809,13.0341712 C14.8480954,15.1099926 14.7332307,17.1052103 13.3264344,19.1313445 C12.8646073,19.7960491 12.3589659,20.4276288 11.8237202,21.0934375 C11.7668799,21.0183546 11.7100397,20.9432717 11.6555678,20.8692929 C11.4613636,20.6087111 11.2612385,20.3547542 11.0670343,20.1096306 C10.6075756,19.5277381 10.1741686,18.9778663 9.87457313,18.4025987 C8.79697665,16.3378189 8.94618232,14.3867676 10.3304793,12.4390287 C10.7934906,11.7875741 11.3086054,11.1372237 11.8118785,10.5067481 C11.9989776,10.7529759 12.1908135,10.9936828 12.3779127,11.2277648 Z" id="Fill-16" fill="url(#linearGradient-3)"></path>
        <path d="M15.2523717,18.9121687 C14.841464,18.1856312 14.3168758,17.5264475 13.808866,16.889347 C13.6004518,16.6265568 13.3837483,16.3549334 13.1836233,16.0877266 C12.9894191,15.8293531 12.7833731,15.5709795 12.5844322,15.3214393 L12.5725905,15.3059811 C12.4754884,15.1834193 12.3736496,15.0564408 12.2682583,14.9217333 L11.708145,14.2095498 L11.4713106,14.5352771 C11.4499955,14.5650895 9.34690611,17.4624062 8.84244885,18.1734855 C7.10408442,20.6203048 6.91106439,23.1808526 8.26930962,25.7833585 C8.64113962,26.4944378 9.1444127,27.1315383 9.6299232,27.7476598 L9.6299232,27.7487639 C9.807549,27.9718043 10.0076741,28.2257612 10.1876682,28.4697806 C10.4351601,28.8021329 10.6944938,29.126756 10.9680375,29.4701499 L11.2072403,29.3045258 L10.9775109,29.4822957 C11.1042173,29.6412947 11.2368446,29.8069188 11.3742085,29.9813761 L12.0172139,30.7995589 L12.4079906,29.8532935 C12.424569,29.8135438 12.4364107,29.7804189 12.4470683,29.7517108 C12.6839027,29.4491708 12.9290263,29.1433184 13.1670448,28.8474035 L13.1848074,28.8264244 C13.7378157,28.1396367 14.3085866,27.4285574 14.8225172,26.68877 C16.5869335,24.1480971 16.7325866,21.531237 15.2523717,18.9121687" id="Fill-18" fill="#000000"></path>
        <path d="M12.3779127,17.8809934 C12.8669757,18.4949065 13.3288027,19.0756949 13.6745809,19.6873997 C14.8480954,21.7632211 14.7332307,23.7584389 13.3264344,25.7845731 C12.8646073,26.4492776 12.3589659,27.0808573 11.8237202,27.746666 C11.7668799,27.6715831 11.7100397,27.5965002 11.6555678,27.5225215 C11.4613636,27.2619396 11.2612385,27.0079828 11.0670343,26.7628592 C10.6075756,26.1809667 10.1741686,25.6310948 9.87457313,25.0558273 C8.79697665,22.9910474 8.94618232,21.0399961 10.3304793,19.0922573 C10.7934906,18.4408027 11.3086054,17.7904522 11.8118785,17.1599767 C11.9989776,17.4062044 12.1908135,17.6469114 12.3779127,17.8809934 Z" id="Fill-20" fill="url(#linearGradient-3)"></path>
    </g>
</svg>